<svg width="21" height="21" viewBox="0 0 21 21" fill="none" xmlns="http://www.w3.org/2000/svg">
<path fill-rule="evenodd" clip-rule="evenodd" d="M15.7282 3.5807V8.85249C15.7282 10.827 14.1219 12.4332 12.1475 12.4332H4.79194L1.00905 15.5855C0.896416 15.6795 0.756386 15.7282 0.615074 15.7282C0.276855 15.7282 0 15.4536 0 15.113V3.5807C0 1.60313 1.59977 0 3.5807 0H12.1475C14.1251 0 15.7282 1.59977 15.7282 3.5807ZM7.24887 9.18205C7.24887 9.52171 7.52444 9.79729 7.86411 9.79729C8.20361 9.79729 8.47934 9.52171 8.47934 9.18205C8.47934 8.84239 8.20361 8.56682 7.86411 8.56682C7.52444 8.56682 7.24887 8.84239 7.24887 9.18205ZM8.47934 7.20513V7.07632C9.42895 6.80779 10.1267 5.93317 10.1267 4.89864C10.1267 3.65103 9.11172 2.63589 7.8633 2.63589C7.25912 2.63589 6.69115 2.87125 6.26385 3.29855C5.83672 3.72569 5.60136 4.29382 5.60136 4.89784V4.89864C5.60136 5.2383 5.87677 5.51356 6.21659 5.51356C6.55641 5.51356 6.83183 5.23766 6.83183 4.89784C6.83183 4.62243 6.93917 4.36336 7.134 4.16853C7.32882 3.97371 7.58789 3.86636 7.86411 3.86636C8.4332 3.86636 8.89622 4.32939 8.89622 4.89864C8.89622 5.46774 8.4332 5.93092 7.86411 5.93092C7.52428 5.93092 7.24887 6.20634 7.24887 6.54616V7.20513C7.24887 7.54479 7.52428 7.82037 7.86411 7.82037C8.20377 7.82037 8.47934 7.54479 8.47934 7.20513ZM16.9587 5.27179H17.4193C19.4002 5.27179 21 6.87508 21 8.85249V20.3848C21 20.7255 20.7231 21 20.3849 21C20.2436 21 20.1036 20.9513 19.991 20.8574L16.2081 17.705H8.85249C6.87813 17.705 5.27179 16.0988 5.27179 14.1244V13.6637H12.1475C14.8004 13.6637 16.9587 11.5054 16.9587 8.85249V5.27179Z" fill="#61BA52"/>
</svg>
